<svg id="Capa_1" enable-background="new 0 0 497.003 497.003" height="512" viewBox="0 0 497.003 497.003" width="512" xmlns="http://www.w3.org/2000/svg"><g><path d="m428.07 224.591-29 248.86c-1.47 12.6-12.15 22.1-24.83 22.1h-19.04l-6.463-10-8.647 10h-48.19l-7.5-10-7.5 10h-57.45l-9.469-10-5.531 10h-47.66l-8.704-10-6.395 10h-38.93c-12.68 0-23.36-9.5-24.83-22.1l-29-248.86z" fill="#8ad3a5"/><path d="m448.07 224.591-29 248.86c-1.47 12.6-12.15 22.1-24.83 22.1h-30c12.68 0 23.36-9.5 24.83-22.1l29-248.86z" fill="#5bbf81"/><g fill="#ffe07d"><path d="m386.73 224.591c0 .28-.02.58-.05.87l-31.48 270.09h-15.11l31.59-270.96.1-.87c.48-4.11 4.2-7.07 8.31-6.58 3.83.45 6.63 3.68 6.64 7.45z"/><path d="m219.45 150.361v345.19h-15v-345.19c0-4.14 3.36-7.5 7.5-7.5 4.15 0 7.5 3.36 7.5 7.5z"/><path d="m291.9 150.361v345.19h-15v-345.19c0-4.14 3.35-7.5 7.5-7.5 4.14 0 7.5 3.36 7.5 7.5z"/><path d="m156.79 495.551h-15.1l-31.48-270.09c-.03-.3-.05-.58-.05-.87-.01-3.76 2.81-7 6.63-7.45 4.12-.49 7.84 2.47 8.32 6.58l.1.87z"/></g><path d="m476.967 226.817c-1.146 39.316-13.171 70.32-52.488 71.43-5.742.162-11.344.676-16.738-.391-12.672-2.507-24.195-8.221-33.683-16.263-5.629-4.771-13.792-4.711-19.426.054-13.005 11.001-29.827 17.63-48.19 17.63s-35.185-6.629-48.195-17.63c-5.66-4.786-13.836-4.786-19.495 0-13.01 11.001-29.833 17.63-48.195 17.63s-35.185-6.629-48.19-17.63c-5.634-4.765-13.797-4.825-19.426-.054-13.527 11.464-31.188 18.197-50.421 17.654-39.317-1.11-71.342-33.114-72.488-72.43-1.028-35.27 22.4-65.234 54.587-74.187 5.191-1.444 9.279-5.431 10.67-10.636 20.473-76.605 87.702-134.105 169.245-140.041 4.611-.336 9.269.493 13.965.493 87.756 0 141.58 58.61 163.21 139.549 1.391 5.205 5.48 9.192 10.67 10.636 32.189 8.952 55.616 38.916 54.588 74.186z" fill="#966a5b"/><path d="m496.97 226.821c-1.15 39.31-33.17 71.32-72.49 72.43-5.9.17-11.65-.35-17.18-1.49 33.24-6.83 58.65-36 59.67-70.94 1.03-35.27-22.4-65.24-54.59-74.19-5.19-1.44-9.28-5.43-10.67-10.64-20.39-76.27-87.13-133.61-168.21-139.95 4.95-.39 9.95-.59 15-.59 87.76 0 161.58 59.61 183.21 140.54 1.39 5.21 5.48 9.2 10.67 10.64 32.19 8.95 55.62 38.92 54.59 74.19z" fill="#785353"/><path d="m265.659 125.869c-.977 0-1.969-.191-2.925-.597l-16.915-7.173c-3.813-1.617-5.594-6.02-3.977-9.833 1.617-3.814 6.017-5.597 9.833-3.978l16.915 7.173c3.813 1.617 5.594 6.02 3.977 9.833-1.212 2.859-3.988 4.575-6.908 4.575z" fill="#ffe07d"/><path d="m231.58 52.246c-2.923 0-5.702-1.72-6.912-4.582-1.613-3.815.173-8.215 3.988-9.828l16.923-7.154c3.817-1.615 8.215.173 9.829 3.988 1.613 3.814-.173 8.215-3.988 9.828l-16.923 7.154c-.954.404-1.943.594-2.917.594z" fill="#e5646e"/><path d="m335.358 95.933c-1.997 0-3.989-.792-5.464-2.361l-12.589-13.384c-2.838-3.018-2.693-7.764.324-10.602 3.018-2.839 7.765-2.692 10.602.324l12.589 13.384c2.838 3.018 2.693 7.764-.324 10.602-1.449 1.362-3.295 2.037-5.138 2.037z" fill="#8ad3a5"/><path d="m355.242 172.77c-1.123 0-2.263-.253-3.336-.788-3.708-1.845-5.218-6.348-3.373-10.056l8.186-16.448c1.846-3.708 6.348-5.221 10.056-3.372 3.708 1.845 5.218 6.348 3.372 10.056l-8.186 16.448c-1.31 2.635-3.963 4.16-6.719 4.16z" fill="#ffe07d"/><path d="m162.19 109.495c-3.036 0-5.893-1.857-7.023-4.867l-6.456-17.202c-1.455-3.878.509-8.201 4.387-9.656 3.879-1.457 8.201.508 9.657 4.387l6.455 17.202c1.455 3.878-.509 8.201-4.387 9.656-.867.325-1.758.48-2.633.48z" fill="#8ad3a5"/><path d="m151.707 184.267c-.291 0-.585-.018-.881-.052l-18.249-2.137c-4.114-.481-7.059-4.207-6.577-8.321s4.2-7.056 8.321-6.577l18.248 2.137c4.114.481 7.059 4.207 6.577 8.321-.446 3.818-3.687 6.629-7.439 6.629z" fill="#e5646e"/><path d="m239.794 193.98c-3.13 0-6.05-1.975-7.105-5.104-1.324-3.925.784-8.18 4.709-9.504l17.409-5.873c3.925-1.326 8.18.784 9.504 4.709s-.784 8.18-4.709 9.504l-17.409 5.873c-.795.268-1.604.395-2.399.395z" fill="#e5646e"/><path d="m114.001 229.722c-.977 0-1.969-.191-2.925-.597l-16.915-7.173c-3.813-1.617-5.594-6.02-3.976-9.833 1.617-3.814 6.017-5.597 9.833-3.977l16.915 7.173c3.813 1.617 5.594 6.02 3.977 9.833-1.213 2.859-3.989 4.574-6.909 4.574z" fill="#a4ccff"/><path d="m356.546 224.591c-3.13 0-6.05-1.975-7.105-5.105-1.324-3.925.784-8.18 4.709-9.504l17.409-5.873c3.925-1.326 8.18.784 9.504 4.709s-.784 8.18-4.709 9.504l-17.409 5.873c-.796.269-1.604.396-2.399.396z" fill="#a4ccff"/></g></svg>