<svg height="512" viewBox="0 0 192 192" width="512" xmlns="http://www.w3.org/2000/svg" xmlns:xlink="http://www.w3.org/1999/xlink"><linearGradient id="New_Gradient_Swatch_1" gradientUnits="userSpaceOnUse" x1="34.302" x2="157.708" y1="129.294" y2="5.888"><stop offset="0" stop-color="#34cdfa"/><stop offset="1" stop-color="#e8d9f1"/></linearGradient><g id="_18-recommend" data-name="18-recommend"><g id="Flat"><path d="m189.387 51.577c-6.151-22.954-21.743-40.367-40.693-45.445-12.257-3.284-30.979-2.859-52.694 16.068-30.625-26.634-58.751-19.248-75.431-2.569-22.641 22.642-29.7 66.231-5.251 90.679 24.815 24.814 74.437 55 76.538 56.275a7.994 7.994 0 0 0 8.288 0c2.1-1.273 51.723-31.461 76.538-56.275 14.046-14.046 18.795-36.003 12.705-58.733z" fill="url(#New_Gradient_Swatch_1)"/><path d="m112 56v40h-8v-40h-16v40h-8v-40h-16v48a32.057 32.057 0 0 0 24 30.987v57.013h16v-57.013a32.057 32.057 0 0 0 24-30.987v-48z" fill="#e6f9fe"/><path d="m80 104v-48h-16v48a32.057 32.057 0 0 0 24 30.987v57.013h16v-57.013a32.057 32.057 0 0 1 -24-30.987z" fill="#ccf2fe"/></g></g></svg>